<?xml version="1.0" encoding="UTF-8" standalone="no"?>
<!-- Created with Inkscape (http://www.inkscape.org/) -->

<svg
   width="210mm"
   height="190mm"
   viewBox="0 0 210 190"
   version="1.1"
   id="svg1"
   sodipodi:docname="AnimeAmongUsTitel.svg"
   inkscape:version="1.3.2 (091e20e, 2023-11-25)"
   xmlns:inkscape="http://www.inkscape.org/namespaces/inkscape"
   xmlns:sodipodi="http://sodipodi.sourceforge.net/DTD/sodipodi-0.dtd"
   xmlns="http://www.w3.org/2000/svg"
   xmlns:svg="http://www.w3.org/2000/svg">
  <sodipodi:namedview
     id="namedview1"
     pagecolor="#ffffff"
     bordercolor="#000000"
     borderopacity="0.25"
     inkscape:showpageshadow="2"
     inkscape:pageopacity="0.0"
     inkscape:pagecheckerboard="0"
     inkscape:deskcolor="#d1d1d1"
     inkscape:document-units="mm"
     inkscape:zoom="1.2809119"
     inkscape:cx="355.21569"
     inkscape:cy="330.23349"
     inkscape:window-width="1800"
     inkscape:window-height="1097"
     inkscape:window-x="0"
     inkscape:window-y="44"
     inkscape:window-maximized="0"
     inkscape:current-layer="layer1" />
  <defs
     id="defs1">
    <inkscape:path-effect
       effect="bend_path"
       id="path-effect5"
       is_visible="true"
       lpeversion="1"
       bendpath="m -59.809843,12.062215 c 146.131751,-118.739215 291.295463,-116.473705 435.545513,0"
       prop_scale="1"
       scale_y_rel="false"
       vertical="false"
       hide_knot="false"
       bendpath-nodetypes="cc" />
    <inkscape:path-effect
       effect="bend_path"
       id="path-effect1"
       is_visible="true"
       lpeversion="1"
       bendpath="m -81.725697,100.99311 c 144.262191,-129.155008 289.779807,-139.506311 436.884957,0"
       prop_scale="1"
       scale_y_rel="false"
       vertical="false"
       hide_knot="false"
       bendpath-nodetypes="cc" />
  </defs>
  <g
     inkscape:groupmode="layer"
     id="layer1"
     inkscape:label="Layer">
    <rect
       style="fill:#f6c344;fill-opacity:1;stroke:#f6c344;stroke-width:2.64216;stroke-linejoin:round;stroke-dasharray:none;stroke-opacity:1;paint-order:stroke fill markers"
       id="rect1"
       width="3.1333725"
       height="2.5406945"
       x="127.06471"
       y="148.79861" />
    <rect
       style="fill:#f6c344;fill-opacity:1;stroke:#f6c344;stroke-width:2.64216;stroke-linejoin:round;stroke-dasharray:none;stroke-opacity:1;paint-order:stroke fill markers"
       id="rect4-8"
       width="3.1333725"
       height="2.5406945"
       x="90.622223"
       y="38.847755" />
    <rect
       style="display:inline;fill:#f6c344;fill-opacity:1;stroke:#f6c344;stroke-width:2.64216;stroke-linejoin:round;stroke-dasharray:none;stroke-opacity:1;paint-order:stroke fill markers"
       id="rect4-8-2"
       width="3.1333725"
       height="2.5406945"
       x="11.590128"
       y="72.030479" />
    <rect
       style="fill:#f6c344;fill-opacity:1;stroke:#f6c344;stroke-width:2.64216;stroke-linejoin:round;stroke-dasharray:none;stroke-opacity:1;paint-order:stroke fill markers"
       id="rect4-8-21"
       width="3.1333725"
       height="2.5406945"
       x="129.33685"
       y="41.594711" />
    <path
       d="m -44.023839,0.92808329 c 1.318981,-0.99696983 1.642012,-1.94845669 0.956979,-2.86371469 -0.416614,-0.5566278 -0.96867,-0.8982959 -1.657495,-1.022985 -0.688714,-0.1246693 -1.304748,0.017709 -1.845915,0.4267531 -0.482655,0.3648177 -0.758973,0.8654712 -0.828165,1.50036 -0.0692,0.63497351 0.08782,1.20226832 0.469145,1.70247551 0.793209,1.04050259 1.760529,1.12251649 2.905451,0.25711108 z m 18.326242,8.21058731 c -2.01684,1.4637434 -3.877277,2.2222984 -5.601285,2.2665694 -1.709074,0.03374 -3.074091,-0.617086 -4.087782,-1.9677598 L -35.98287,8.6430753 c -0.496554,-0.6616246 -1.209151,-0.6462042 -2.135279,0.053411 -0.854958,0.6458516 -1.004312,1.3327678 -0.453373,2.0570138 0.0902,0.118578 0.214601,0.252703 0.37319,0.40247 0.252899,0.244404 0.484482,0.50502 0.694867,0.781733 1.172315,1.541912 1.324922,3.118267 0.475647,4.728209 -0.536407,1.037437 -1.554475,2.134048 -3.053281,3.303057 -1.706779,1.331219 -3.241087,2.028989 -4.616571,2.086398 -1.371123,0.03347 -2.872864,-0.651131 -4.50366,-2.056958 -0.501094,-0.42511 -1.245804,-0.612903 -2.234921,-0.559384 -1.595021,0.09674 -3.131851,-0.753866 -4.602319,-2.562858 -1.220475,-1.501446 -1.694199,-2.927483 -1.412462,-4.28277 0.09881,-0.483843 0.11698,-0.880762 0.05372,-1.190936 -0.05947,-0.334369 -0.235699,-0.712797 -0.52885,-1.135004 -3.084402,-4.4412446 -4.565066,-8.6835201 -4.38839,-12.7565318 0.215628,-4.6429746 2.825247,-8.9379662 7.860224,-12.7260422 5.35431,-4.028327 10.446651,-5.260287 15.094015,-3.771715 3.899239,1.260262 7.393262,4.17512 10.551605,8.697116 2.191278,3.137387 4.333366,6.792603 6.460354,10.96604271 0.771786,1.50097029 0.828217,2.97725509 0.179317,4.43231059 -0.634731,1.4452618 -1.81009,2.7828344 -3.528564,4.0300358 z M 6.1547869,-12.019439 c -2.1468425,1.29248 -3.9508886,1.893388 -5.43873131,1.784141 -1.49446028,-0.123148 -3.00790349,-0.755525 -4.54145629,-1.900587 -5.3315709,-3.93352 -8.3355573,-6.080159 -8.8935503,-6.547622 -0.312087,-0.2518 -0.567377,-0.313949 -0.765418,-0.186469 -0.152318,0.09805 -0.116411,0.320975 0.107636,0.668641 1.519621,2.291222 3.4514973,4.788859 5.7915195,7.516318 0.2918942,0.323691 0.5404683,0.645804 0.7459056,0.9660529 0.401965,0.6266093 0.6746773,1.3459714 0.8205218,2.1572291 0.1458831,0.8114737 -0.1060558,1.7309911 -0.7499691,2.7622332 -0.6383384,1.0079328 -1.6338522,1.9569152 -2.9878104,2.856451 -1.8341954,1.21859308 -3.5045724,1.7413794 -5.0309164,1.55824431 -1.50987,-0.19276921 -3.105024,-1.14643411 -4.781755,-2.86530421 -1.674788,-1.7168774 -3.685911,-4.2686495 -6.013467,-7.6460523 -3.12862,-4.539788 -5.837495,-9.062093 -8.103532,-13.591238 -1.373824,-2.76281 -0.233361,-5.423529 3.497429,-7.8972 2.130523,-1.412627 4.052531,-2.007632 5.738877,-1.797172 1.687857,0.210649 3.454997,0.946063 5.29797,2.205509 1.842873,1.251451 4.545881,2.69669 8.129318,4.413336 0.180914,0.08225 0.325845,0.08954 0.434967,0.02179 0.09353,-0.05807 0.07055,-0.199501 -0.06897,-0.424345 -1.692832,-2.727969 -3.186617,-4.803536 -4.494421,-6.232602 -0.324018,-0.343889 -0.595445,-0.691163 -0.814004,-1.042182 -0.419572,-0.673859 -0.692466,-1.448986 -0.815697,-2.326093 -0.115943,-0.901106 0.220657,-1.917581 1.017283,-3.045262 0.796579,-1.127614 1.864251,-2.094977 3.199328,-2.894959 2.197899,-1.316988 4.1066119,-1.915648 5.7015909,-1.810279 1.6127606,0.09594 3.189055,1.020063 4.7305025,2.766032 1.54375996,1.748589 3.3383517,4.426534 5.4065777,8.045888 2.6727137,4.677195 4.9721667,9.475303 6.9356719,14.370298 0.618937,1.56994 0.53989,3.045004 -0.2258917,4.430664 -0.7509599,1.377287 -2.0258882,2.598696 -3.8295044,3.684541 z M 24.139042,-22.205837 c -0.07647,0.04058 -0.152923,0.08118 -0.229367,0.121815 -1.834641,0.975203 -3.513181,1.437797 -5.052961,1.378793 -1.615645,-0.05445 -2.939929,-0.743499 -3.96696,-2.081878 -3.184998,-4.201995 -6.1145774,-8.641223 -8.7492506,-13.339861 -2.0385535,-3.635527 -3.4107967,-6.551968 -4.1149064,-8.774827 -0.7030612,-2.219548 -0.6911959,-4.041056 0.042516,-5.462891 0.7497024,-1.429748 2.2582873,-2.761319 4.5278173,-3.966106 2.0505212,-1.088527 3.7691465,-1.670474 5.1330875,-1.759256 1.382164,-0.09756 2.425147,0.134027 3.128131,0.684941 0.695836,0.536424 1.228436,1.174411 1.600526,1.911691 0.186065,0.368678 0.34968,0.776344 0.491279,1.222981 0.903515,2.744963 2.019374,5.411101 3.334275,8.003883 2.419158,4.770206 4.980725,9.052798 7.641507,12.85017 0.16518,0.249711 0.321983,0.52211 0.47055,0.817182 0.757672,1.504824 0.76202,2.952509 0.0302,4.346181 -0.819225,1.605607 -2.245213,2.94534 -4.286439,4.047182 z M 64.53709,-40.372643 c -1.33495,0.492637 -2.592126,0.702644 -3.781558,0.626884 -1.178999,-0.09733 -2.05313,-0.43879 -2.62105,-1.033934 -0.567714,-0.59493 -0.989372,-1.237546 -1.262103,-1.930102 -0.139371,-0.353911 -0.255425,-0.743733 -0.347693,-1.169447 -1.32883,-5.588573 -2.163856,-8.895793 -2.62491,-10.081416 -0.149865,-0.385386 -0.309274,-0.545277 -0.47814,-0.479457 -0.219569,0.08558 -0.319118,0.328803 -0.298253,0.729167 0.02941,0.521366 0.08609,3.001994 0.257584,7.422246 0.01706,0.45456 0.02486,0.889141 0.02333,1.303756 -0.01564,3.603567 -0.737056,5.699447 -2.219334,6.317861 -1.652844,0.689575 -3.952048,-0.582853 -6.974607,-3.790409 -3.029164,-3.222703 -4.752592,-5.003811 -5.102711,-5.390594 -0.270077,-0.295798 -0.512947,-0.395684 -0.727945,-0.299689 -0.165455,0.07388 -0.163667,0.299384 0.005,0.676379 0.517945,1.157431 2.28438,4.077117 5.327427,8.940916 0.238239,0.364316 0.434154,0.720364 0.588023,1.067811 0.301094,0.679892 0.461521,1.430735 0.484493,2.252008 0.02298,0.821573 -0.359422,1.68656 -1.14034,2.600721 -0.772177,0.892233 -1.805081,1.635587 -3.10314,2.239047 -1.970261,0.915963 -3.678421,1.177182 -5.148089,0.767336 -1.451639,-0.416701 -2.882173,-1.593225 -4.286243,-3.534275 -1.401972,-1.938147 -3.019868,-4.749983 -4.83013,-8.419914 -2.434055,-4.934542 -4.455967,-9.789968 -6.032215,-14.593255 -0.952444,-2.926806 0.578307,-5.404816 4.671933,-7.314712 2.336769,-1.090227 4.342162,-1.396587 5.984802,-0.938424 1.644431,0.458662 3.276789,1.435677 4.893251,2.929605 2.327395,2.187827 4.895744,4.707112 7.665112,7.550872 0.848434,0.879401 1.446037,1.24677 1.798617,1.099163 0.352581,-0.147607 0.513453,-0.823542 0.48864,-2.030176 -0.07185,-3.163968 -0.07742,-6.228387 -0.01979,-9.192037 0.01086,-0.540422 0.02386,-1.07748 0.039,-1.611163 0.05563,-2.196661 0.501174,-4.046372 1.336456,-5.54448 0.834183,-1.496135 2.473303,-2.716091 4.911543,-3.617683 4.27434,-1.580529 7.135894,-0.916798 8.539894,1.827204 2.296092,4.515213 4.306207,9.38424 6.081592,14.603254 1.319936,3.880156 2.16896,7.018973 2.553441,9.382798 0.385171,2.368072 0.205019,4.216061 -0.532541,5.542925 -0.722741,1.323763 -2.093283,2.343522 -4.119381,3.091213 0,0 -10e-7,0 -2e-6,1e-6 z m 18.650884,-6.194772 c -2.051166,0.606205 -3.8088,0.735145 -5.293592,0.369893 -1.560323,-0.376168 -2.717486,-1.313244 -3.464471,-2.828078 -2.306823,-4.748285 -4.32865,-9.676284 -6.009709,-14.801427 -1.301119,-3.966794 -2.084893,-7.095661 -2.342645,-9.41847 -0.257255,-2.318335 0.11663,-4.109014 1.129849,-5.367723 1.030422,-1.263125 2.796937,-2.283272 5.294103,-3.022693 4.507427,-1.334668 8.414651,-2.186457 11.639065,-2.619627 3.244787,-0.454745 5.80513,-0.367551 7.646541,0.207025 1.861257,0.555658 2.976284,1.725554 3.36839,3.48425 0.352557,1.581305 0.322277,2.876637 -0.08148,3.882588 -0.404116,1.006863 -1.026181,1.742675 -1.869782,2.211888 -0.847382,0.453113 -1.719814,0.789098 -2.620673,1.008698 -0.684921,0.166961 -1.503147,0.292295 -2.457525,0.379601 -1.253135,0.111743 -2.224584,0.261887 -2.906166,0.440877 -1.510791,0.396748 -2.146396,1.027721 -1.917488,1.872638 0.142789,0.527044 0.465429,0.799331 0.966669,0.818937 0.49721,0.0036 1.012504,-0.06495 1.546976,-0.205449 0.570813,-0.150052 1.307959,-0.419131 2.218636,-0.804739 0.739073,-0.307587 1.316888,-0.511484 1.728042,-0.613529 1.092072,-0.271045 2.035083,-0.26012 2.822602,0.028 1.020469,0.386504 1.711834,1.379835 2.084887,2.974465 0.297582,1.272031 0.178282,2.276885 -0.349753,3.013903 -0.532381,0.721653 -1.258769,1.270731 -2.181794,1.65186 -0.927109,0.36512 -1.86564,0.678545 -2.817337,0.940664 -0.621375,0.177064 -1.177563,0.356613 -1.667861,0.53726 -0.490403,0.180679 -0.870091,0.393437 -1.138771,0.636805 -0.251484,0.238825 -0.327094,0.542086 -0.227956,0.909457 0.133645,0.495245 0.439568,0.737942 0.916721,0.730121 0.49033,-0.02841 0.967647,-0.103511 1.43266,-0.225479 0.724463,-0.190018 1.653444,-0.533518 2.798425,-1.026378 0.896686,-0.379027 1.693609,-0.651451 2.386461,-0.819407 3.727062,-0.903486 5.997932,0.621655 6.839453,4.422655 0.38603,1.743592 0.11117,3.201732 -0.802444,4.376399 -0.903539,1.158593 -2.682896,2.219604 -5.337955,3.244233 -2.68102,1.019061 -6.385718,2.148928 -11.332076,3.610782 0,-10e-7 -10e-7,-2e-6 -10e-7,-2e-6 z M 131.20483,-73.82946 c 1.63789,-0.164304 2.41017,-0.801456 2.30654,-1.938549 -0.063,-0.691001 -0.35387,-1.270225 -0.87687,-1.735729 -0.52285,-0.465363 -1.12503,-0.66495 -1.80263,-0.597137 -0.60434,0.06048 -1.10267,0.344792 -1.49207,0.851163 -0.38949,0.506501 -0.54859,1.072315 -0.48103,1.69647 0.14061,1.299041 0.92445,1.866391 2.34606,1.723782 z m 11.03996,16.624939 c -2.39928,0.15057 -4.30728,-0.191863 -5.75196,-1.063919 -1.42499,-0.871871 -2.22941,-2.13847 -2.38659,-3.816668 l -0.0924,-0.986956 c -0.0769,-0.821535 -0.67959,-1.182706 -1.81085,-1.069242 -1.04439,0.104753 -1.51609,0.614226 -1.42018,1.517049 0.0157,0.147885 0.0522,0.326725 0.10934,0.536668 0.0883,0.339527 0.15057,0.681837 0.18705,1.026866 0.2033,1.922797 -0.46018,3.344284 -1.95973,4.281156 -0.95858,0.610131 -2.34167,1.024039 -4.16037,1.264803 -2.07082,0.274142 -3.68983,0.104024 -4.87399,-0.536227 -1.16824,-0.658296 -2.10949,-1.999852 -2.818,-4.028502 -0.22105,-0.617506 -0.76382,-1.150907 -1.63382,-1.59432 -1.40659,-0.705296 -2.31903,-2.201043 -2.71163,-4.497718 -0.32594,-1.906729 -0.0435,-3.380279 0.86681,-4.419791 0.32324,-0.371737 0.53452,-0.707349 0.63267,-1.00801 0.11333,-0.319715 0.14749,-0.735505 0.1019,-1.247063 -0.48045,-5.384253 0.34818,-9.797829 2.60477,-13.237761 2.57936,-3.905783 7.15815,-6.308441 13.61489,-6.922985 6.86705,-0.653598 11.97576,1.053053 15.12161,4.81098 2.63971,3.170335 3.96375,7.513376 4.12635,13.020343 0.11284,3.821969 -0.0989,8.040501 -0.58325,12.691782 -0.16852,1.675544 -0.90445,2.938109 -2.19483,3.802876 -1.27408,0.864514 -2.9233,1.348336 -4.96777,1.47664 1e-5,0 1e-5,-10e-7 2e-5,-10e-7 z m 44.27334,1.212095 c -1.39891,-0.163903 -2.60166,-0.542697 -3.61735,-1.144959 -0.99675,-0.616768 -1.61603,-1.313455 -1.85182,-2.099315 -0.23571,-0.785531 -0.32143,-1.548111 -0.25304,-2.288473 0.035,-0.378332 0.10658,-0.77827 0.21538,-1.199529 1.3258,-5.588874 2.07063,-8.900796 2.19444,-10.171633 0.04,-0.411073 -0.03,-0.625425 -0.21003,-0.642785 -0.23408,-0.02257 -0.43229,0.149481 -0.59381,0.515901 -0.20832,0.478162 -1.27571,2.71496 -3.09998,6.738265 -1.82286,4.006845 -3.56348,5.95217 -5.32669,5.836468 -1.76322,-0.115702 -3.23173,-2.271619 -4.51244,-6.483211 -1.27994,-4.228098 -2.04559,-6.586224 -2.18956,-7.087698 -0.11217,-0.384519 -0.28614,-0.581097 -0.52126,-0.589331 -0.18083,-0.0063 -0.27828,0.197113 -0.29234,0.610055 -0.0435,1.277521 0.26204,4.657935 0.84364,10.374586 0.0526,0.431973 0.0712,0.837954 0.0563,1.217728 -0.0292,0.743201 -0.21381,1.48831 -0.54977,2.23679 -0.33612,0.748847 -1.04841,1.358895 -2.13132,1.841285 -1.06582,0.466491 -2.29512,0.687006 -3.69795,0.669787 -0.8817,-0.01082 -1.6751,-0.102068 -2.38302,-0.276496 -1.0017,-0.250292 -1.83218,-0.666498 -2.49383,-1.254211 -1.11022,-1.001336 -1.8881,-2.679187 -2.3242,-5.035607 -0.43517,-2.351376 -0.70013,-5.59084 -0.77406,-9.683372 -0.0995,-5.506167 0.1398,-10.762615 0.77721,-15.784625 0.31572,-2.438489 1.95736,-3.941382 4.95606,-4.430006 0.76204,-0.121947 1.61043,-0.177353 2.54292,-0.16394 2.62828,0.03781 4.60098,0.647174 5.89518,1.783059 1.29624,1.137671 2.34508,2.736979 3.1439,4.793064 1.13405,2.994305 2.32731,6.390438 3.54345,10.169761 0.36883,1.164859 0.7397,1.75977 1.12098,1.784927 0.38128,0.02516 0.82655,-0.507628 1.34397,-1.597365 1.59683,-3.381829 3.22509,-6.594185 4.87545,-9.636371 1.04168,-1.934256 2.27932,-3.382098 3.70964,-4.339356 1.42824,-0.955861 3.45661,-1.300571 6.05506,-0.995724 4.55553,0.534448 6.81,2.432667 6.81034,5.509629 -0.0121,5.05892 -0.44482,10.301658 -1.24536,15.748395 -0.5951,4.048964 -1.27083,7.226105 -2.00392,9.501675 -0.73455,2.280116 -1.73188,3.841043 -2.9831,4.686298 -1.23705,0.849442 -2.9059,1.135094 -5.02912,0.886329 1e-5,2e-6 2e-5,3e-6 4e-5,5e-6 z m 28.24006,-10.363198 c 0.87838,0.188952 1.686,-0.09828 2.43043,-0.864285 0.58113,-0.615638 0.99056,-1.439089 1.22299,-2.471462 0.2652,-1.177898 0.16086,-2.209969 -0.32184,-3.096471 -0.33478,-0.616091 -0.90053,-1.011537 -1.69474,-1.182134 -0.83038,-0.178366 -1.58356,0.03558 -2.25361,0.639453 -0.67047,0.604243 -1.11694,1.466133 -1.34594,2.583949 -0.25878,1.263158 -0.13653,2.343246 0.35737,3.239574 0.33316,0.610037 0.86736,0.992627 1.60534,1.151376 z m -1.94739,14.781683 c -5.35897,-1.180637 -9.11649,-3.429411 -11.37623,-6.961234 -2.22976,-3.508596 -2.96803,-8.243476 -2.04009,-14.178556 0.57986,-3.708754 1.70995,-6.806628 3.45045,-9.289612 1.7594,-2.492976 4.13519,-4.242942 7.12352,-5.206539 2.98633,-0.962946 6.57757,-1.024841 10.69264,-0.124288 4.11485,0.900506 7.34714,2.455475 9.65339,4.576177 2.30966,2.12384 3.73215,4.704004 4.28899,7.705336 0.56194,2.989144 0.30584,6.283129 -0.71438,9.900016 -0.99657,3.533087 -2.48715,6.442775 -4.41593,8.739746 -1.90962,2.288373 -4.25938,3.860394 -7.04725,4.753762 -2.76709,0.881599 -5.94938,0.892791 -9.61511,0.08519 z m 43.29533,13.194272 c -2.30371,-0.895412 -3.86031,-1.94127 -4.67242,-3.175015 -0.80588,-1.248503 -1.22854,-2.82658 -1.26623,-4.73792 -0.1681,-6.616221 -0.34958,-10.30498 -0.32812,-11.032618 0.004,-0.400984 -0.10481,-0.639784 -0.32719,-0.715908 -0.17106,-0.05856 -0.32346,0.108029 -0.45711,0.499538 -0.85449,2.614892 -1.61484,5.678117 -2.31032,9.205164 -0.0739,0.42955 -0.17304,0.824246 -0.29704,1.18404 -0.24267,0.704074 -0.63627,1.364593 -1.1778,1.983684 -0.54174,0.61934 -1.40834,0.995253 -2.59796,1.137726 -1.16861,0.132307 -2.50579,-0.04848 -4.02359,-0.534535 -2.05573,-0.658322 -3.47688,-1.619471 -4.27344,-2.915094 -0.77855,-1.288124 -1.03193,-3.12412 -0.75261,-5.507082 0.27881,-2.378641 0.98682,-5.552427 2.13201,-9.48754 1.5404,-5.293102 3.33086,-10.246946 5.42368,-14.860434 1.28037,-2.803882 4.11191,-3.595885 8.45715,-2.207805 2.47865,0.7918 4.17231,1.937716 5.07303,3.395703 0.90191,1.459916 1.43324,3.307484 1.59263,5.538074 0.16585,2.228572 0.71273,5.245207 1.57349,9.13257 0.0469,0.193383 0.13073,0.312239 0.25168,0.356687 0.10367,0.0381 0.2012,-0.06703 0.29261,-0.315469 1.10933,-3.014836 1.82541,-5.469506 2.14343,-7.382386 0.0707,-0.467521 0.17677,-0.895529 0.31882,-1.284043 0.27272,-0.745888 0.71731,-1.437834 1.33714,-2.073616 0.64312,-0.6444 1.6623,-1.001635 3.0578,-1.059519 1.3953,-0.05787 2.83255,0.199637 4.30083,0.774269 1.9253,0.753495 3.37096,1.643767 4.33286,2.648577 0.24488,0.256499 0.45846,0.520588 0.64079,0.792078 0.91509,1.343535 1.14446,3.160172 0.69647,5.446942 -0.44877,2.290746 -1.48552,5.342851 -3.1049,9.185541 -2.09261,4.965625 -4.50787,9.706648 -7.19829,14.244639 -0.86932,1.446775 -2.08385,2.283211 -3.63929,2.52484 -0.17579,0.02834 -0.3541,0.05007 -0.53494,0.06522 -1.39915,0.118227 -2.94848,-0.159834 -4.66319,-0.82631 10e-6,2e-6 10e-6,5e-6 2e-5,7e-6 z m 25.27582,11.083658 c -5.45786,-2.66699 -8.72763,-6.051097 -9.83691,-10.394161 -0.96236,-3.739454 -0.44298,-8.083457 1.66242,-12.983905 2.20015,-5.120981 5.29353,-8.645667 9.40198,-10.497959 4.3779,-1.973236 9.38956,-1.669196 14.84246,0.996402 4.48859,2.194202 7.6014,5.04107 9.31421,8.424433 1.49519,2.954397 1.79712,5.809426 0.96317,8.551035 -0.21684,0.671743 -0.46775,1.268919 -0.75163,1.791531 -1.22361,2.252635 -3.40026,3.194373 -6.50931,2.893606 -1.70807,-0.15597 -3.13008,-0.523814 -4.27557,-1.113634 -1.38658,-0.713956 -2.1854,-1.941569 -2.40607,-3.697767 -0.0711,-0.590254 -0.22726,-1.176587 -0.46925,-1.75858 -0.22226,-0.498299 -0.62168,-0.890422 -1.19742,-1.174319 -0.85572,-0.421954 -1.74684,-0.24969 -2.66672,0.515313 -0.89678,0.758594 -1.68701,1.852665 -2.37758,3.280685 -0.65427,1.352937 -0.92579,2.598383 -0.82155,3.732319 0.10429,1.134526 0.49614,2.116646 1.17503,2.949825 0.69502,0.841302 1.57943,1.531937 2.65688,2.076939 0.5226,0.264342 0.9149,0.140189 1.17712,-0.375283 0.41923,-0.824132 0.2242,-1.443727 -0.59011,-1.85427 -0.0797,-0.04021 -0.1792,-0.08106 -0.29832,-0.122492 -0.11912,-0.04144 -0.25049,-0.09822 -0.39419,-0.1703 -1.13199,-0.567838 -1.41315,-1.432448 -0.83373,-2.602604 0.4031,-0.814045 1.00992,-1.168554 1.8225,-1.058591 0.81631,0.09475 2.2586,0.656679 4.29619,1.70481 1.62189,0.834294 2.82315,1.698859 3.60214,2.577842 0.78745,0.865197 1.15901,1.870245 1.11713,3.010371 -0.0419,1.141122 -0.51246,2.537805 -1.40682,4.196242 -1.49826,2.77825 -3.6676,4.174296 -6.47435,4.242129 -2.80371,0.07628 -6.34006,-0.998519 -10.7217,-3.139616 z m 41.18729,23.4606694 c -5.17906,-3.365069 -7.94372,-7.3493054 -8.30373,-12.1533414 -0.31686,-3.972066 0.89261,-8.357464 3.70739,-13.102126 1.88737,-3.18139 4.33201,-6.642723 7.34806,-10.345324 1.0733,-1.323374 2.44973,-1.957277 4.1331,-1.888425 1.6818,0.06878 3.4991,0.699706 5.43188,1.898838 2.27091,1.408911 3.77423,2.951738 4.51135,4.601294 0.75341,1.66058 0.66133,3.199045 -0.25545,4.615328 -0.23404,0.361562 -0.69307,0.950037 -1.37792,1.768809 -2.35966,2.723961 -4.01973,4.845184 -4.97582,6.328837 -1.11082,1.723745 -1.73895,3.170763 -1.88794,4.334421 -0.11389,1.01013 0.16098,1.730546 0.8264,2.164967 1.40684,0.918476 3.38347,-0.549348 5.93708,-4.415321 1.16435,-1.762733 2.56482,-4.430483 4.16569,-7.985435 0.17137,-0.362586 0.35695,-0.69599 0.55694,-1.000169 1.73098,-2.632689 4.67773,-2.622518 8.78733,0.167173 1.37655,0.934432 2.38637,1.870038 3.02982,2.797356 0.65932,0.938543 0.94725,1.976455 0.86544,3.11054 -0.0664,1.145291 -0.47899,2.482926 -1.23627,4.014715 -1.31457,2.616647 -2.8157,5.11305 -4.49367,7.494617 -8.21287,11.65667909 -17.10074,13.8755941 -26.76967,7.5932579 0,-3.9e-6 -1e-5,-7.7e-6 -1e-5,-1.15e-5 z m 50.93849,-9.3202994 c 1.95091,1.481222 3.67258,3.2456926 5.15558,5.2845559 1.50777,2.0370818 2.4606,3.975796 2.86831,5.8019508 0.37177,1.69240561 0.1473,3.04117153 -0.65885,4.047675 -0.91007,1.1362678 -2.24399,1.8670848 -3.99634,2.205014 -2.88311,0.5158245 -5.08514,0.1811827 -6.63156,-1.0245639 -0.59257,-0.4620304 -1.04455,-1.0747883 -1.35763,-1.8399368 -0.29857,-0.75392034 -0.68213,-1.31044199 -1.14849,-1.66852319 -0.59775,-0.45896737 -1.06297,-0.47016307 -1.39452,-0.0363658 -0.3418,0.44722604 -0.28448,1.02162242 0.1684,1.72402672 0.46329,0.6897889 1.09587,1.5006258 1.89665,2.4367993 2.00139,2.3080349 3.33231,4.408637 4.00564,6.276073 0.98142,2.771495 0.42786,5.420087 -1.61783,7.954608 -1.28789,1.595636 -2.88023,2.668764 -4.76918,3.232769 -1.87556,0.575267 -4.01926,0.493281 -6.43896,-0.229122 -2.40826,-0.712224 -5.07691,-2.203424 -8.04888,-4.458924 -2.14424,-1.627318 -3.84261,-3.285802 -5.0984,-4.994524 -2.37898,-3.2360986 -3.50708,-6.4876768 -3.35774,-9.7966736 0.10925,-2.17798033 0.71283,-4.0609695 1.83086,-5.6428049 1.50852,-2.1343241 3.78243,-2.8665765 6.83225,-2.1413705 1.67269,0.3882427 3.02714,0.9643369 4.05727,1.7190843 1.1189,0.8197794 1.72667,1.9799147 1.81906,3.47151439 0.13666,2.16395331 0.84775,3.73024611 2.14686,4.71288991 0.76479,0.5784764 1.34678,0.6064482 1.74783,0.07929 0.3406,-0.4477077 0.30459,-1.0893957 -0.1126,-1.9242922 -0.4169,-0.8343106 -0.99396,-1.80923308 -1.7333,-2.92004179 -1.68798,-2.52383921 -2.84773,-4.69515531 -3.46097,-6.53542401 -0.88832,-2.6726734 -0.57693,-5.0944894 0.97782,-7.2599684 1.14905,-1.600399 2.53886,-2.579366 4.17887,-2.926734 1.64848,-0.360524 3.49136,-0.158508 5.51825,0.615509 2.05096,0.771525 4.26583,2.048898 6.6216,3.83751 z"
       id="text1"
       style="font-size:50.8px;font-family:Atop;-inkscape-font-specification:Atop;display:inline;fill:#ffffff;stroke:#f6c344;stroke-width:9.865;stroke-linejoin:round;paint-order:stroke fill markers"
       aria-label="ANIME AMONG US"
       inkscape:path-effect="#path-effect5"
       inkscape:original-d="m -42.173706,13.042002 q 2.257226,0 2.257226,-1.711524 0,-1.041797 -0.644922,-1.810742 -0.644922,-0.7689453 -1.562695,-0.7689453 -0.818555,0 -1.413867,0.6945313 -0.595313,0.694531 -0.595313,1.637109 0,1.959571 1.959571,1.959571 z m 9.10332,17.487304 q -3.522266,0 -5.506641,-1.488281 -1.95957,-1.488281 -1.95957,-4.01836 v -0.992187 q 0,-1.240234 -1.612305,-1.240234 -1.488281,0 -1.488281,1.364257 0,0.223243 0.04961,0.545704 0.07441,0.520898 0.07441,1.041796 0,2.902149 -2.331641,4.043164 -1.488281,0.744141 -4.167187,0.744141 -3.050977,0 -4.613672,-1.21543 -1.537891,-1.240234 -2.083594,-4.415234 -0.173633,-0.967383 -1.289844,-1.835547 -1.810742,-1.389062 -1.810742,-4.886523 0,-2.902149 1.463477,-4.216797 0.520898,-0.471289 0.719336,-0.892969 0.223242,-0.446484 0.272851,-1.215429 0.520899,-8.0863284 4.067969,-12.70000019 4.067969,-5.25859371 12.352734,-5.25859371 8.805664,0 12.7,5.8539062 3.249414,4.9113281 3.249414,13.1712887 0,5.729883 -0.917774,12.675195 -0.32246,2.505274 -2.257226,3.720703 -1.909961,1.21543 -4.911328,1.21543 z m 36.1900382,0 q -3.57187499,0 -5.2833984,-1.314648 -1.7115234,-1.339453 -2.6789062,-4.01836 -3.3982421,-9.252148 -3.6958984,-10.293945 -0.1736328,-0.570508 -0.4960937,-0.570508 -0.2480469,0 -0.2480469,0.620118 0.049609,4.117578 0.7441406,9.450585 0.099219,0.644922 0.099219,1.21543 0,1.116211 -0.4464844,2.257227 -0.4464844,1.141015 -2.0091798,1.90996 -1.537891,0.744141 -3.844727,0.744141 -3.12539,0 -4.7625,-1.513086 -1.612304,-1.513086 -2.182812,-5.060156 -0.570508,-3.54707 -0.570508,-9.698633 0,-8.2599605 0.917774,-15.7757807 0.570507,-4.5888672 6.424414,-4.5888672 3.348632,0 5.060156,1.6371094 1.7115234,1.6371093 2.8773437,4.71289055 1.1658203,3.05097655 4.043164,8.06152335 0.1488281,0.2480468 0.3224609,0.2480468 0.1488282,0 0.1488282,-0.396875 0,-4.8121093 -0.4712891,-7.66464828 -0.1240234,-0.69453124 -0.1240234,-1.31464842 0,-1.190625 0.471289,-2.4060547 0.4960938,-1.2402343 2.1580078,-2.058789 1.661914,-0.8185547 3.6958984,-0.8185547 3.3486327,0 5.0849608,1.3394531 1.7611327,1.3394532 2.3812497,4.76249998 0.620117,3.42304682 0.620117,9.67382802 0,8.0863278 -1.041797,15.9246088 -0.347265,2.505274 -2.2820306,3.720703 -1.9099609,1.21543 -4.9113282,1.21543 z m 19.6949218,0 h -0.248047 q -2.976563,0 -4.861719,-1.190625 -1.984375,-1.240234 -2.331641,-3.745508 -1.041796,-7.838281 -1.041796,-15.9246088 0,-6.2507812 0.620117,-9.67382802 0.620117,-3.42304678 2.356445,-4.76249998 1.761133,-1.3394531 5.109766,-1.3394531 3.026171,0 4.663281,0.8185547 1.661914,0.8185547 2.158007,2.0339844 0.496094,1.1906249 0.496094,2.4308593 0,0.62011718 -0.09922,1.31464842 -0.570507,4.29121088 -0.570507,8.65683578 0,8.0367183 0.942578,14.9324213 0.04961,0.446485 0.04961,0.942578 0,2.530079 -1.835547,3.894336 -2.083593,1.5875 -5.407421,1.612305 z m 42.540034,0 q -2.058789,0 -3.621485,-0.744141 -1.53789,-0.768945 -1.984375,-1.90996 -0.446484,-1.141016 -0.446484,-2.257227 0,-0.570508 0.09922,-1.21543 1.141015,-8.483203 1.141015,-10.343554 0,-0.620117 -0.248047,-0.620117 -0.32246,0 -0.496093,0.570507 -0.223242,0.744141 -2.306836,6.994922 -2.083594,6.225977 -4.638477,6.225977 -2.554882,0 -4.638476,-6.225977 -2.083594,-6.250781 -2.306836,-6.994922 -0.173633,-0.570507 -0.496094,-0.570507 -0.248047,0 -0.248047,0.620117 0,1.860351 1.141016,10.343554 0.09922,0.644922 0.09922,1.21543 0,1.116211 -0.446485,2.257227 -0.446484,1.141015 -2.009179,1.90996 -1.537891,0.744141 -3.59668,0.744141 -3.125391,0 -4.7625,-1.513086 -1.612305,-1.513086 -2.182812,-5.060156 -0.570508,-3.54707 -0.570508,-9.698633 0,-8.2599605 0.917773,-15.7757807 0.570508,-4.5888672 6.424414,-4.5888672 3.348633,0 5.060156,1.6371094 1.711524,1.6371093 2.877344,4.66328117 1.661914,4.41523433 3.621484,9.97148433 0.595313,1.711523 1.116211,1.711523 0.520899,0 1.116211,-1.686718 1.835547,-5.2337894 3.646289,-9.99628933 1.141016,-3.02617187 2.852539,-4.66328117 1.711524,-1.6371094 5.060156,-1.6371094 5.853907,0 6.424414,4.5888672 0.917774,7.5158202 0.917774,15.7757807 0,6.151563 -0.570508,9.698633 -0.570508,3.54707 -2.207617,5.060156 Q 68.48,30.529306 65.35461,30.529306 Z m 18.975598,0 q -3.100586,0 -4.985742,-1.190625 -1.984375,-1.240234 -2.331641,-3.745508 -1.041796,-7.838281 -1.041796,-15.9246088 0,-6.2507812 0.620117,-9.67382802 0.620117,-3.42304678 2.356445,-4.76249998 1.761133,-1.3394531 5.109766,-1.3394531 6.052343,0 10.219531,0.5705078 4.191992,0.5457032 6.350004,2.0091797 2.18281,1.4386719 2.18281,4.14238275 0,2.43085935 -0.81856,3.77031245 -0.81855,1.3394531 -2.058786,1.7363281 -1.240234,0.3720703 -2.480468,0.3720703 -0.942578,0 -2.207618,-0.2232422 -1.661914,-0.2976562 -2.604492,-0.2976562 -2.083593,0 -2.083593,1.3146484 0,0.8185547 0.644921,1.0417969 0.644922,0.1984374 1.389063,0.1984374 0.79375,0 2.108398,-0.2232421 1.066602,-0.1736328 1.63711,-0.1736328 1.513086,0 2.455664,0.6945312 1.215431,0.9177734 1.215431,3.3734372 0,1.959571 -0.94258,2.852539 -0.942578,0.868164 -2.306836,1.091406 -1.364257,0.198438 -2.728515,0.223243 -0.892969,0.0248 -1.612305,0.09922 -0.719336,0.07441 -1.16582,0.322461 -0.42168,0.248047 -0.42168,0.818555 0,0.768945 0.644922,0.942578 0.669727,0.148828 1.339453,0.148828 1.041797,0 2.75332,-0.297656 1.339454,-0.223242 2.331641,-0.223242 5.3082,0 5.3082,5.853906 0,2.678906 -1.66191,4.092773 -1.63711,1.389063 -5.729884,1.909961 -4.067968,0.496094 -11.48457,0.496094 z M 133.64192,13.042002 q 2.25723,0 2.25723,-1.711524 0,-1.041797 -0.64492,-1.810742 -0.64493,-0.7689453 -1.5627,-0.7689453 -0.81855,0 -1.41387,0.6945313 -0.59531,0.694531 -0.59531,1.637109 0,1.959571 1.95957,1.959571 z m 9.10332,17.487304 q -3.52226,0 -5.50664,-1.488281 -1.95957,-1.488281 -1.95957,-4.01836 v -0.992187 q 0,-1.240234 -1.6123,-1.240234 -1.48828,0 -1.48828,1.364257 0,0.223243 0.0496,0.545704 0.0744,0.520898 0.0744,1.041796 0,2.902149 -2.33164,4.043164 -1.48828,0.744141 -4.16719,0.744141 -3.05098,0 -4.61367,-1.21543 -1.53789,-1.240234 -2.08359,-4.415234 -0.17364,-0.967383 -1.28985,-1.835547 -1.81074,-1.389062 -1.81074,-4.886523 0,-2.902149 1.46348,-4.216797 0.52089,-0.471289 0.71933,-0.892969 0.22324,-0.446484 0.27285,-1.215429 0.5209,-8.0863284 4.06797,-12.70000019 4.06797,-5.25859371 12.35274,-5.25859371 8.80566,0 12.7,5.8539062 3.24941,4.9113281 3.24941,13.1712887 0,5.729883 -0.91777,12.675195 -0.32246,2.505274 -2.25723,3.720703 -1.90996,1.21543 -4.91133,1.21543 z m 43.33378,0 q -2.05879,0 -3.62149,-0.744141 -1.53789,-0.768945 -1.98437,-1.90996 -0.44649,-1.141016 -0.44649,-2.257227 0,-0.570508 0.0992,-1.21543 1.14102,-8.483203 1.14102,-10.343554 0,-0.620117 -0.24805,-0.620117 -0.32246,0 -0.49609,0.570507 -0.22324,0.744141 -2.30684,6.994922 -2.08359,6.225977 -4.63847,6.225977 -2.55489,0 -4.63848,-6.225977 -2.08359,-6.250781 -2.30684,-6.994922 -0.17363,-0.570507 -0.49609,-0.570507 -0.24805,0 -0.24805,0.620117 0,1.860351 1.14102,10.343554 0.0992,0.644922 0.0992,1.21543 0,1.116211 -0.44649,2.257227 -0.44648,1.141015 -2.00918,1.90996 -1.53789,0.744141 -3.59668,0.744141 -3.12539,0 -4.7625,-1.513086 -1.6123,-1.513086 -2.18281,-5.060156 -0.57051,-3.54707 -0.57051,-9.698633 0,-8.2599605 0.91778,-15.7757807 0.57051,-4.5888672 6.42441,-4.5888672 3.34863,0 5.06016,1.6371094 1.71152,1.6371093 2.87734,4.66328117 1.66192,4.41523433 3.62149,9.97148433 0.59531,1.711523 1.11621,1.711523 0.52089,0 1.11621,-1.686718 1.83554,-5.2337894 3.64629,-9.99628933 1.14101,-3.02617187 2.85254,-4.66328117 1.71152,-1.6371094 5.06015,-1.6371094 5.85391,0 6.42442,4.5888672 0.91777,7.5158202 0.91777,15.7757807 0,6.151563 -0.57051,9.698633 -0.57051,3.54707 -2.20762,5.060156 -1.6123,1.513086 -4.73769,1.513086 z m 24.75509,-14.882812 q 1.24023,0 2.00918,-1.364258 0.59531,-1.091406 0.59531,-2.678906 0,-1.8107424 -0.89297,-2.951758 -0.62011,-0.79375 -1.71152,-0.79375 -1.14102,0 -1.86035,1.0914062 -0.71934,1.0914058 -0.71934,2.8029298 0,1.934765 0.91778,3.100586 0.62011,0.79375 1.66191,0.79375 z m 1.16582,14.858007 q -7.98711,0 -12.03027,-4.638476 -4.01836,-4.638477 -4.01836,-13.667383 0,-5.6306637 1.73633,-9.7234371 1.76113,-4.1175781 5.333,-6.3499999 3.57188,-2.2324219 8.9793,-2.2324219 5.40742,0 8.9793,2.2324219 3.57187,2.2324218 5.333,6.3499999 1.76114,4.0927734 1.76114,9.7234371 0,5.506641 -1.76114,9.599414 -1.73632,4.067969 -5.3082,6.399609 -3.54707,2.306836 -9.0041,2.306836 z m 43.75545,0.0248 q -3.57187,0 -5.2834,-1.314648 -1.71152,-1.339453 -2.6789,-4.01836 -3.39824,-9.252148 -3.6959,-10.293945 -0.17363,-0.570508 -0.49609,-0.570508 -0.24805,0 -0.24805,0.620118 0.0496,4.117578 0.74414,9.450585 0.0992,0.644922 0.0992,1.21543 0,1.116211 -0.44649,2.257227 -0.44648,1.141015 -2.00918,1.90996 -1.53789,0.744141 -3.84472,0.744141 -3.12539,0 -4.7625,-1.513086 -1.61231,-1.513086 -2.18281,-5.060156 -0.57051,-3.54707 -0.57051,-9.698633 0,-8.2599605 0.91777,-15.7757807 0.57051,-4.5888672 6.42442,-4.5888672 3.34863,0 5.06015,1.6371094 1.71152,1.6371093 2.87735,4.71289055 1.16582,3.05097655 4.04316,8.06152335 0.14883,0.2480468 0.32246,0.2480468 0.14883,0 0.14883,-0.396875 0,-4.8121093 -0.47129,-7.66464828 -0.12402,-0.69453124 -0.12402,-1.31464842 0,-1.190625 0.47128,-2.4060547 0.4961,-1.2402343 2.15801,-2.058789 1.66192,-0.8185547 3.6959,-0.8185547 3.34863,0 5.08496,1.3394531 1.76113,1.3394532 2.38125,4.76249998 0.62012,3.42304682 0.62012,9.67382802 0,8.0863278 -1.0418,15.9246088 -0.34726,2.505274 -2.28203,3.720703 -1.90996,1.21543 -4.91133,1.21543 z m 26.49143,0 q -8.73125,0 -12.65039,-5.283398 -3.39824,-4.564063 -3.39824,-12.575977 0,-8.3591793 3.94394,-13.39453075 4.2168,-5.38261715 12.10469,-5.38261715 6.49883,0 10.56679,3.2990234 3.54707,2.87734374 4.31602,7.0941405 0.17363,1.0417969 0.17363,1.9347656 0,3.8447264 -3.94394,5.6306644 -2.15801,0.992187 -3.91914,0.992187 -2.13321,0 -3.47266,-2.207617 -0.44648,-0.7441407 -1.09141,-1.3642578 -0.5705,-0.5208985 -1.43867,-0.5208985 -1.28984,0 -1.95957,1.6371093 -0.64492,1.612305 -0.64492,3.993555 0,2.257226 0.81856,3.720703 0.81855,1.463476 2.18281,2.133203 1.38906,0.669726 3.07578,0.669726 0.81855,0 0.81855,-0.868164 0,-1.389062 -1.26504,-1.389062 -0.12402,0 -0.29765,0.02481 -0.17363,0.0248 -0.39688,0.0248 -1.76113,0 -1.76113,-1.95957 0,-1.364258 1.0666,-1.761133 1.0666,-0.421679 4.2168,-0.421679 2.50527,0 4.01836,0.620117 1.51308,0.595312 2.20762,2.133203 0.69453,1.53789 0.69453,4.365625 0,4.737695 -3.49746,6.796484 -3.47266,2.058789 -10.46758,2.058789 z m 45.14453,0 q -8.78085,0 -12.69999,-5.878711 -3.27422,-4.861718 -3.27422,-13.146484 0,-5.5562499 0.91777,-12.6503904 0.32246,-2.5300781 2.25723,-3.7455078 1.93476,-1.2154297 4.91132,-1.2154297 3.49747,0 5.48184,1.4882813 2.00918,1.4882812 2.00918,4.01835928 0,0.64492187 -0.17363,2.23242182 -0.66973,5.3578124 -0.66973,8.011914 0,3.0757815 0.69453,4.6632815 0.62012,1.364257 1.71153,1.364257 2.30683,0 2.30683,-6.945312 0,-3.1749999 -0.81855,-8.95449201 -0.0744,-0.59531249 -0.0744,-1.14101559 0,-4.7376953 6.49883,-4.7376953 2.18281,0 3.57188,0.5953125 1.41386,0.5953125 2.18281,2.0587891 0.79375,1.4634765 1.14101,3.99355459 0.57051,4.34082021 0.57051,8.70644521 0,21.2824215 -16.54473,21.2824215 z m 32.99023,-36.9341791 q 3.22461,0 6.42442,1.0417969 3.22461,1.0169921 5.15937,2.7781249 1.78594,1.63710937 1.78594,3.57187496 0,2.18281244 -1.5627,4.21679684 -2.60449,3.2990234 -5.25859,3.2990234 -1.01699,0 -1.98437,-0.6201172 -0.94258,-0.6201172 -1.73633,-0.6201172 -1.01699,0 -1.01699,0.8185547 0,0.8433593 1.0666,1.265039 1.0666,0.396875 2.70371,0.7689458 4.06797,0.892968 6.3748,2.455664 3.39824,2.33164 3.39824,7.218164 0,3.075781 -1.56269,5.50664 -1.53789,2.430859 -4.83691,3.819922 -3.27422,1.389062 -8.53282,1.389062 -3.79511,0 -6.64765,-0.942578 -5.40743,-1.785937 -7.9127,-5.953125 -1.63711,-2.75332 -1.63711,-5.655468 0,-3.919141 3.94395,-5.705078 2.15801,-0.992188 3.89433,-0.992188 1.88516,0 3.19981,1.711524 1.90996,2.480468 4.14238,2.480468 1.31465,0 1.31465,-0.992187 0,-0.84336 -1.14102,-1.463477 -1.14101,-0.620117 -2.85254,-1.289843 -3.89433,-1.513086 -6.02753,-3.1998051 -3.10059,-2.4556641 -3.10059,-6.4492187 0,-2.95175776 1.48828,-4.8121093 1.48828,-1.8851562 4.2416,-2.7533203 2.77813,-0.8929687 6.67246,-0.8929687 z"
       transform="matrix(0.4464836,0,0,0.4464836,32.278516,74.187794)" />
    <path
       id="rect13"
       style="fill:#ffffff;fill-opacity:1;stroke:#f6c344;stroke-width:6.138;stroke-linejoin:round;stroke-dasharray:none;stroke-opacity:1;paint-order:stroke fill markers"
       d="m 97.339794,61.889675 c -1.0332,0 -1.47598,2.80452 -1.32834,6.93731 0.29514,3.98527 1.3e-4,6.19903 -0.44261,5.16583 -1.62361,-3.39473 -9.299116,-6.1991 -17.564816,-6.1991 -4.42792,0 -8.11785,0.59039 -8.11785,1.1808 0,0.73792 2.06652,3.09953 4.57569,5.6087 3.98528,3.83764 8.70851,10.775 8.70852,13.13667 -1e-5,0.44278 -2.50953,0.73794 -5.75676,0.73794 -4.8707,0 -16.3835,3.5422 -16.3835,5.01855 0,0.14684 4.28038,2.65644 9.59399,5.31286 5.31362,2.657735 9.59399,5.314275 9.59399,5.904295 0,0.59134 -1.62356,1.62442 -3.68996,2.06627 -6.05166,1.47638 -4.13266,3.83776 3.24735,3.83776 h 6.78951 l -2.80422,3.24785 -2.80448,3.09956 4.72322,-0.88625 c 3.69001,-0.73687 6.051608,-0.14686 10.184386,2.65772 4.723196,3.09957 5.018516,3.6897 2.21408,3.6897 -1.77125,0 -4.723278,0.73812 -6.346898,1.62315 -2.361658,1.18136 -3.985228,1.03325 -7.675238,-0.88495 -4.28042,-2.36141 -5.16592,-2.36147 -10.18439,-0.29508 -6.34681,2.65642 -10.03705,8.85558 -7.0851,11.80833 1.47611,1.32818 2.65704,0.73688 5.75676,-3.09956 4.28042,-5.16731 7.67517,-6.05243 10.62726,-2.50966 1.32833,1.62322 0.73772,3.98458 -2.95228,11.51196 -5.16598,10.48011 -5.46107,18.00758 -1.03301,20.81216 1.91888,1.18136 2.95209,1.1815 3.98529,-0.58989 0.73792,-1.18136 1.77107,-1.62328 2.36135,-1.03326 0.46889,0.46889 -0.24448,3.45532 -1.45392,7.19051 12.403716,0.53438 27.422982,-0.49007 43.508442,3.87083 -0.32706,-0.72512 -0.60851,-1.42347 -1.02138,-2.20582 -6.19917,-11.95517 -9.44629,-20.95885 -7.97032,-21.84388 0.88556,-0.44318 1.47604,-2.65778 1.62368,-4.87102 0.14764,-3.69094 0.29495,-3.54277 2.95176,1.91823 1.91888,3.83776 2.50932,7.52729 2.06654,10.77505 -1.0332,5.461 2.06639,7.82254 5.90403,4.72297 3.54236,-2.95142 2.50914,-10.92218 -2.80448,-22.58234 -4.13278,-9.15192 -5.7564,-11.21813 -9.88932,-12.84134 -2.80444,-1.0332 -6.05154,-1.77155 -7.23238,-1.62471 -1.32847,0.29634 -0.59032,-1.18006 1.77122,-3.39463 2.6568,-2.50822 5.75646,-3.83774 8.85604,-3.83774 3.54237,0 4.28056,-0.4419 2.65695,-1.4751 -1.91876,-1.18137 -1.91876,-1.47627 0,-2.06629 1.18083,-0.44318 4.2803,-1.47647 6.64197,-2.50967 l 4.42815,-1.62315 -4.28062,-1.77146 c -4.72319,-1.91956 -3.83735,-3.39462 4.72349,-6.790545 2.50917,-1.0332 4.72323,-2.36137 4.72323,-3.09955 0,-0.73687 -2.21406,-1.32809 -4.72323,-1.32809 -2.65681,0 -5.90411,-0.59016 -6.9373,-1.32834 -1.77125,-1.18005 -1.47602,-1.77111 1.77121,-3.24709 5.75653,-2.65681 4.87083,-4.57572 -1.32835,-3.39488 -3.83764,0.73805 -5.1662,0.59039 -4.42815,-0.73794 0.59042,-0.88569 0.29507,-1.32836 -1.03327,-0.73794 -2.95208,1.03319 -13.13639,-6.05175 -15.64556,-10.92259 -2.50917,-5.01834 -9.003856,-12.10314 -11.070376,-12.10314 z M 86.551318,147.82035 c 0.29497,0.004 0.47435,0.81286 0.75111,2.33525 0.73806,4.72281 -0.88559,8.5605 -2.80448,6.64095 -0.88556,-0.88503 -0.8855,-2.80324 0.29533,-5.75599 0.94098,-2.19554 1.42373,-3.22474 1.75804,-3.22021 z" />
  </g>
</svg>
